<svg xmlns="http://www.w3.org/2000/svg" viewBox="-30 -31 130 130" width="512" height="512">
<rect x="-30" y="-31" width="130" height="130" fill="#B52A2D"/>
<g transform="translate(2,3)"><path d="M39.8,17.7c1.5,0,3,0,4.4,0.1c1.5,0.1,3,0.2,4.4,0.5c1.5,0.3,2.9,0.7,4.3,1.2c1.4,0.5,2.7,1.3,3.9,2.2 c2.2,1.9,3.9,4.1,5,6.8c1.1,2.6,1.7,5.4,1.7,8.3c0,2.1-0.3,4.1-0.9,6.1c-0.6,1.9-1.5,3.7-2.7,5.2c-1.2,1.5-2.6,2.8-4.3,3.9 c-1.7,1-3.6,1.7-5.8,2.1l6.8,10.5c9.2-6.4,15.2-17,15.2-29.1C71.7,15.8,55.9,0,36.4,0C23.3,0,11.9,7.1,5.8,17.6L39.8,17.7z" fill="#ffffff"/><path d="M31.2,45.1l9.7,0.1c1.3,0,2.5-0.1,3.6-0.4c1.1-0.3,2.1-0.7,2.9-1.3c0.8-0.6,1.5-1.4,2-2.4 c0.5-1,0.7-2.2,0.7-3.6c0-1.4-0.2-2.5-0.7-3.5c-0.5-1-1.1-1.7-2-2.3c-0.8-0.6-1.8-1-2.9-1.3c-1.1-0.3-2.2-0.4-3.4-0.4l-5.2,0 L1.4,29.9C1.1,31.6,1,33.5,1,35.4c0,19.5,15.8,35.4,35.4,35.4c3.5,0,6.9-0.5,10-1.5L31.2,45.1z" fill="#ffffff"/></g>
</svg>